<svg width="372" height="224" viewBox="0 0 372 224" fill="none" xmlns="http://www.w3.org/2000/svg">
<g clip-path="url(#clip0_3_2)">
<path d="M0 24C0 10.745 10.745 0 24 0H348C361.255 0 372 10.745 372 24V76C344.386 76 322 98.386 322 126C322 153.614 344.386 176 372 176V200C372 213.255 361.255 224 348 224H24C10.745 224 0 213.255 0 200V176C27.614 176 50 153.614 50 126C50 98.386 27.614 76 0 76V24Z" fill="url(#paint0_linear_3_2)"/>
<path d="M169 153C169 182.823 144.823 207 115 207C86.8614 207 63.749 185.477 61.228 157.996C60.9758 155.246 63.2386 153 66 153H103C105.761 153 107.901 155.5 109.711 157.585C110.994 159.065 112.888 160 115 160C118.866 160 122 156.866 122 153V82C122 79.2386 124.239 77 127 77H164C166.761 77 169 79.2386 169 82V153Z" fill="white"/>
<path d="M122 77C122 44.967 147.967 19 180 19H319.06C322.74 19 325.159 22.8417 323.569 26.1606L305.361 64.1606C304.529 65.8958 302.776 67 300.851 67H183C175.268 67 169 73.268 169 81V91C169 93.7614 166.761 96 164 96H127C124.239 96 122 93.7614 122 91V77Z" fill="white"/>
<path d="M190 105C190 102.239 192.239 100 195 100H276.91C280.627 100 283.044 103.912 281.382 107.236L262.382 145.236C261.535 146.93 259.804 148 257.91 148H195C192.239 148 190 145.761 190 143V105Z" fill="white"/>
</g>
<defs>
<linearGradient id="paint0_linear_3_2" x1="-6" y1="4" x2="378" y2="220" gradientUnits="userSpaceOnUse">
<stop stop-color="#7C3AED"/>
<stop offset="1" stop-color="#5B21B6"/>
</linearGradient>
<clipPath id="clip0_3_2">
<rect width="372" height="224" fill="white"/>
</clipPath>
</defs>
</svg>
